#define ac1_width 8
#define ac1_height 8
static unsigned char ac7_bits[] = {
   0x44, 0x44, 0xfe, 0xfe, 0x7c, 0x38, 0x38, 0x38};
