#define calendar_width 8
#define calendar_height 8
static unsigned char calendar_bits[] = {
   0xff, 0xff, 0x91, 0x99, 0x91, 0x91, 0xb9, 0xff };
