#define dwm_width 23
#define dwm_height 9
static unsigned char dwm_bits[] = {
   0x60, 0x00, 0x00, 0x60, 0x00, 0x00, 0x60, 0x00, 0x00, 0x7f, 0xe6, 0x7f,
   0x7f, 0xe6, 0x7f, 0x63, 0x66, 0x66, 0x63, 0x66, 0x66, 0xff, 0x7f, 0x66,
   0xff, 0x7f, 0x66 };
