#define gimpMirror_width 8
#define gimpMirror_height 8
static unsigned char gimpMirror_bits[] = {
   0xbd, 0xbd, 0xbd, 0xbd, 0xbd, 0x81, 0xb5, 0xb5 };
