#define gimpGrid_width 8
#define gimpGrid_height 8
static unsigned char gimpGrid_bits[] = {
   0xad, 0xad, 0x81, 0xad, 0xad, 0x81, 0xad, 0xad };
