#define gimpFloat_width 8
#define gimpFloat_height 8
static unsigned char gimpFloat_bits[] = {
   0x81, 0xbd, 0xbd, 0xa5, 0xa5, 0xbd, 0x81, 0x81 };
