#define play5_width 8
#define play5_height 8
static unsigned char play5_bits[] = {
   0x16, 0x36, 0x76, 0xf6, 0xf6, 0x76, 0x36, 0x16 };
