#define term1_width 8
#define term1_height 8
static unsigned char term1_bits[] = {
   0x00, 0x00, 0x01, 0x02, 0x04, 0x02, 0x01, 0xf8 };
