#define threeCol_width 8
#define threeCol_height 8
static unsigned char threeCol_bits[] = {
   0xdb, 0xdb, 0xdb, 0xdb, 0xdb, 0xdb, 0xdb, 0xdb };
